<svg viewBox="0 0 800 480" xmlns="http://www.w3.org/2000/svg" role="img" aria-label="Anteprima del caso Briefstack con calendario lanci e task">
  <defs>
    <linearGradient id="briefbg" x1="0" y1="0" x2="1" y2="1">
      <stop offset="0%" stop-color="#331b18"/>
      <stop offset="100%" stop-color="#1c100e"/>
    </linearGradient>
  </defs>
  <rect width="800" height="480" fill="url(#briefbg)"/>

  <rect x="40" y="44" width="240" height="26" rx="13" fill="#e94b35"/>

  <!-- calendar -->
  <rect x="40" y="100" width="380" height="330" rx="16" fill="#241412" stroke="rgba(247,247,242,.12)"/>
  <rect x="40" y="100" width="380" height="56" rx="16" fill="#3a1e1a"/>
  <rect x="66" y="122" width="140" height="14" rx="7" fill="rgba(247,247,242,.7)"/>
  <g stroke="rgba(247,247,242,.1)">
    <line x1="40" y1="216" x2="420" y2="216"/>
    <line x1="40" y1="286" x2="420" y2="286"/>
    <line x1="40" y1="356" x2="420" y2="356"/>
    <line x1="132" y1="176" x2="132" y2="430"/>
    <line x1="224" y1="176" x2="224" y2="430"/>
    <line x1="316" y1="176" x2="316" y2="430"/>
  </g>
  <rect x="52" y="192" width="60" height="20" rx="6" fill="#f0836f"/>
  <rect x="146" y="262" width="60" height="20" rx="6" fill="#d7ed57"/>
  <rect x="238" y="332" width="60" height="20" rx="6" fill="#3fc7bd"/>
  <rect x="330" y="192" width="60" height="20" rx="6" fill="#f0836f"/>
  <rect x="52" y="332" width="60" height="20" rx="6" fill="#3fc7bd"/>

  <!-- task list -->
  <rect x="450" y="100" width="310" height="330" rx="16" fill="#241412" stroke="rgba(247,247,242,.12)"/>
  <rect x="476" y="128" width="140" height="16" rx="8" fill="rgba(247,247,242,.7)"/>

  <g>
    <rect x="476" y="168" width="20" height="20" rx="5" fill="#e94b35"/>
    <rect x="508" y="172" width="220" height="12" rx="6" fill="rgba(247,247,242,.55)"/>

    <rect x="476" y="212" width="20" height="20" rx="5" fill="none" stroke="rgba(247,247,242,.4)" stroke-width="2"/>
    <rect x="508" y="216" width="180" height="12" rx="6" fill="rgba(247,247,242,.4)"/>

    <rect x="476" y="256" width="20" height="20" rx="5" fill="#d7ed57"/>
    <rect x="508" y="260" width="200" height="12" rx="6" fill="rgba(247,247,242,.55)"/>

    <rect x="476" y="300" width="20" height="20" rx="5" fill="none" stroke="rgba(247,247,242,.4)" stroke-width="2"/>
    <rect x="508" y="304" width="150" height="12" rx="6" fill="rgba(247,247,242,.4)"/>

    <rect x="476" y="344" width="20" height="20" rx="5" fill="none" stroke="rgba(247,247,242,.4)" stroke-width="2"/>
    <rect x="508" y="348" width="190" height="12" rx="6" fill="rgba(247,247,242,.4)"/>
  </g>
</svg>
